<svg width="354" height="91" viewBox="0 0 354 91" fill="none" xmlns="http://www.w3.org/2000/svg">
<rect x="9" y="9" width="338" height="72" fill="white"/>
<path d="M65.6092 38.3911C72.4242 38.3911 73.9575 41.3443 73.9575 45.0276C73.9575 48.9319 72.1028 51.7291 65.6374 51.7291C59.2133 51.7291 57.3564 49.0944 57.3564 45.0276C57.3564 41.0258 59.3805 38.3911 65.6092 38.3911Z" fill="black"/>
<path d="M136.831 38.3911C143.646 38.3911 145.179 41.3443 145.179 45.0276C145.179 48.9319 143.322 51.7291 136.859 51.7291C130.437 51.7291 128.578 49.0944 128.578 45.0276C128.578 41.0258 130.602 38.3911 136.831 38.3911Z" fill="black"/>
<path fill-rule="evenodd" clip-rule="evenodd" d="M5.27051 83.4166V6.60181H349.667V83.4166H5.27051ZM169.409 79.0833H345.324V10.9351H169.409V79.0833ZM65.6421 58.2681C77.7411 58.2681 82.8274 53.0616 82.8274 44.9301C82.8274 36.6665 77.0983 31.7546 65.6421 31.7546C54.3619 31.7546 48.4243 37.089 48.4243 44.9301C48.4243 53.7788 54.6529 58.2681 65.6421 58.2681ZM23.577 32.3396V57.8781H47.9964V51.077H32.4118V32.3396H23.577ZM110.157 57.8781L109.929 55.4038C106.973 57.5081 103.376 58.5208 99.7543 58.2681C94.3096 58.2681 89.775 56.641 87.2318 53.3563C85.5543 50.9582 84.7073 48.0796 84.819 45.1576C84.7236 42.297 85.5999 39.4881 87.3056 37.1865C89.8792 33.9993 94.5442 31.8846 101.49 31.8846C109.48 31.8846 114.175 34.3243 116.195 38.4236C116.628 39.3891 116.883 40.4248 116.946 41.4808H108.494C108.28 40.839 107.884 40.2735 107.353 39.8536C105.67 38.74 103.659 38.225 101.646 38.3911C100.465 38.2484 99.2671 38.3571 98.1317 38.7105C96.9963 39.0639 95.9489 39.6537 95.0589 40.4408C94.0481 41.821 93.5736 43.5201 93.7232 45.2226C93.606 46.847 94.0423 48.4633 94.9612 49.8095C95.8592 50.6443 96.9268 51.2765 98.0914 51.6639C99.2561 52.0511 100.49 52.1844 101.711 52.0541C104.135 52.2509 106.542 51.5049 108.428 49.972C108.833 49.4667 109.113 48.8726 109.243 48.2386H100.147V42.7505H117.168V57.8781H110.157ZM136.863 58.2681C148.96 58.2681 154.049 53.0616 154.049 44.9301C154.049 36.6665 148.311 31.7546 136.863 31.7546C125.583 31.7546 119.646 37.089 119.646 44.9301C119.646 53.7788 125.874 58.2681 136.863 58.2681Z" fill="black"/>
<path d="M184.291 57.7807V32.2422H190.589V57.7807H184.291Z" fill="black"/>
<path d="M222.93 47.1099C221.334 49.192 218.587 50.1432 214.715 50.167C213.898 50.167 203.072 50.1345 203.072 50.1345V57.7807H196.908V32.2422H214.717C216.144 32.0916 217.588 32.2426 218.952 32.6853C220.318 33.1282 221.573 33.8527 222.639 34.8119C224.047 36.641 224.731 38.9216 224.564 41.2209C224.707 43.3121 224.131 45.3898 222.93 47.1099ZM217.877 38.7834C217.225 37.8084 215.82 37.2667 213.442 37.2667H203.039V45.0407H213.375C215.918 45.0407 217.258 44.5207 217.877 43.511C218.244 42.7997 218.402 41.9987 218.333 41.2014C218.387 40.3698 218.231 39.538 217.877 38.7834Z" fill="black"/>
<path d="M242.727 58.1707C231.117 58.1707 227.563 53.8373 227.563 49.5495H234.15C234.15 51.6642 237.052 53.2588 243.02 53.2588C248.953 53.2588 250.519 52.2167 250.519 50.5245C250.519 48.6373 249.346 48.0523 243.834 47.4348C242.749 47.3373 239.793 46.9798 238.683 46.8173C230.865 45.9377 227.855 43.628 227.855 39.4962C227.855 35.1368 232.259 31.8522 241.813 31.8522C252.183 31.8522 256.161 35.919 256.161 40.1483H249.646C249.646 38.0012 247.201 36.764 241.428 36.764C235.493 36.764 234.222 37.5765 234.222 39.1712C234.222 40.8308 235.525 41.3508 241.823 42.0983C243.259 42.2955 246.454 42.653 247.333 42.7483C253.988 43.4308 256.987 45.838 256.987 50.0998C256.976 55.1763 252.411 58.1707 242.727 58.1707Z" fill="black"/>
<path d="M275.534 58.1382C267.025 58.1382 261.48 54.7864 261.48 47.7382V32.2422H267.707V47.8249C267.707 51.0467 270.35 53.1917 275.795 53.1917C280.718 53.1917 283.654 51.1767 283.654 47.8249V32.2422H289.818V48.3167C289.818 54.7235 284.664 58.1382 275.534 58.1382Z" fill="black"/>
<path d="M323.567 57.7807V40.7334L315.577 57.7807H309.513L301.751 40.7334V57.7807H295.888V32.2422H303.832L312.636 51.6967L321.636 32.2422H329.455V57.7807H323.567Z" fill="black"/>
</svg>
